<svg xmlns="http://www.w3.org/2000/svg" xmlns:xlink="http://www.w3.org/1999/xlink"><symbol id="icon-check" viewBox="0 0 16 12">
<path fill-rule="evenodd" clip-rule="evenodd" d="M2 4L0 6L6 12L16 2L14 0L6 8L2 4Z" fill="#FD5940"/>
</symbol><symbol id="icon-phone" viewBox="0 0 48 48">
    <path d="M0 0h48v48h-48z" fill="none"/>
    <path fill="currentColor" d="M13.25 21.59c2.88 5.66 7.51 10.29 13.18 13.17l4.4-4.41c.55-.55 1.34-.71 2.03-.49 2.24.74 4.65 1.14 7.14 1.14 1.11 0 2 .89 2 2v7c0 1.11-.89 2-2 2-18.78 0-34-15.22-34-34 0-1.11.9-2 2-2h7c1.11 0 2 .89 2 2 0 2.49.4 4.9 1.14 7.14.22.69.06 1.48-.49 2.03l-4.4 4.42z"/>
</symbol><symbol id="icon-red-phone" viewBox="0 0 48 48">
    <path d="M0 0h48v48h-48z" fill="none"/>
    <path fill="#e20000" d="M13.25 21.59c2.88 5.66 7.51 10.29 13.18 13.17l4.4-4.41c.55-.55 1.34-.71 2.03-.49 2.24.74 4.65 1.14 7.14 1.14 1.11 0 2 .89 2 2v7c0 1.11-.89 2-2 2-18.78 0-34-15.22-34-34 0-1.11.9-2 2-2h7c1.11 0 2 .89 2 2 0 2.49.4 4.9 1.14 7.14.22.69.06 1.48-.49 2.03l-4.4 4.42z"/>
</symbol><symbol id="icon-user-red" viewBox="0 0 24 24"><path fill="#e20000" d="M19 7.001A7 7 0 114.999 7 7 7 0 0119 7zm-1.598 7.18A8.937 8.937 0 0112 16.001a8.953 8.953 0 01-5.407-1.822C2.521 15.972 0 21.555 0 24h24c0-2.423-2.6-8.006-6.598-9.819z"/></symbol></svg>